<svg id="epOeh279mv01" xmlns="http://www.w3.org/2000/svg" xmlns:xlink="http://www.w3.org/1999/xlink" viewBox="0 0 1408.02 617.21" shape-rendering="geometricPrecision" text-rendering="geometricPrecision">
<style><![CDATA[
#epOeh279mv05_to {animation: epOeh279mv05_to__to 3000ms linear 1 normal forwards}@keyframes epOeh279mv05_to__to { 0% {transform: translate(247.709991px,481.445011px);animation-timing-function: cubic-bezier(0.42,0,0.58,1)} 16.666667% {transform: translate(247.709991px,308.605011px)} 100% {transform: translate(247.709991px,308.605011px)}} #epOeh279mv06_to {animation: epOeh279mv06_to__to 3000ms linear 1 normal forwards}@keyframes epOeh279mv06_to__to { 0% {transform: translate(-67.490009px,-308.604989px)} 4% {transform: translate(-67.490009px,-308.604989px);animation-timing-function: cubic-bezier(0.42,0,0.58,1)} 20.666667% {transform: translate(247.709991px,308.605011px)} 100% {transform: translate(247.709991px,308.605011px)}} #epOeh279mv07_to {animation: epOeh279mv07_to__to 3000ms linear 1 normal forwards}@keyframes epOeh279mv07_to__to { 0% {transform: translate(1232.669553px,922.960021px)} 7.666667% {transform: translate(1232.669553px,922.960021px);animation-timing-function: cubic-bezier(0.42,0,0.58,1)} 24.333333% {transform: translate(944.255005px,305.750021px)} 100% {transform: translate(944.255005px,305.750021px)}} #epOeh279mv08_to {animation: epOeh279mv08_to__to 3000ms linear 1 normal forwards}@keyframes epOeh279mv08_to__to { 0% {transform: translate(658.573453px,-308.189979px)} 12.333333% {transform: translate(658.573453px,-308.189979px);animation-timing-function: cubic-bezier(0.42,0,0.58,1)} 29% {transform: translate(944.255005px,305.750021px)} 100% {transform: translate(944.255005px,305.750021px)}} #epOeh279mv09_to {animation: epOeh279mv09_to__to 3000ms linear 1 normal forwards}@keyframes epOeh279mv09_to__to { 0% {transform: translate(944.255005px,137.830021px)} 17.666667% {transform: translate(944.255005px,137.830021px);animation-timing-function: cubic-bezier(0.42,0,0.58,1)} 31% {transform: translate(944.255005px,308.190021px)} 100% {transform: translate(944.255005px,308.190021px)}}
]]></style>
<g mask="url(#epOeh279mv010)"><g><g><g id="epOeh279mv05_to" transform="translate(247.709991,481.445011)"><path d="M168.69,506.12c11.01,17.55,25.14,36.36,42.38,56.35c17.29,20.05,38.28,38.28,63,54.74h-274.07c24.67-16.46,45.65-34.69,62.95-54.74c17.29-20,31.42-38.8,42.38-56.35c13.19-20.31,23.89-40.87,32.1-61.75c7.69,20.88,18.13,41.45,31.27,61.75Z" transform="translate(-247.709991,-308.605011)" fill="#ffffff"/></g><g id="epOeh279mv06_to" transform="translate(-67.490009,-308.604989)"><path d="M418.09,617.21l77.33-201.62L282.27,0h-180.22L418.08,617.21Z" transform="translate(-247.709991,-308.605011)" fill="#ffffff"/></g><g id="epOeh279mv07_to" transform="translate(1232.669553,922.960021)"><path d="M864.82,432.89L767.7,617.21L480.49,3.27h172.01L864.82,432.89Z" transform="translate(-944.255005,-309.020021)" fill="#ffffff"/></g><g id="epOeh279mv08_to" transform="translate(658.573453,-308.189979)"><path d="M1203.91,432.89l-97.12,184.32L819.58,3.27h172.01l212.32,429.62Z" transform="translate(-944.255005,-309.020021)" fill="#ffffff"/></g><g id="epOeh279mv09_to" transform="translate(944.255005,137.830021)"><path d="M1297.71,174.46c-4.41-23.58-12.36-46.33-23.84-68.3-9.92-18.65-23.73-37.6-41.6-56.77-17.81-19.22-41.55-35.11-71.15-47.73h136.59l110.31-.83c-15.94,16.98-30.49,35.52-43.63,55.52-13.19,20.05-24.72,38.85-34.59,56.4-11.53,20.83-22.23,41.39-32.1,61.7Z" transform="translate(-944.255005,-309.020021)" fill="#ffffff"/></g></g></g><mask id="epOeh279mv010" mask-type="luminance" x="-150%" y="-150%" height="400%" width="400%"><rect width="1408.02" height="617.21" rx="0" ry="0" fill="#ffffff" stroke-width="0"/></mask></g></svg>
